<svg width="8" height="2" viewBox="0 0 8 2" fill="none" xmlns="http://www.w3.org/2000/svg">
<path d="M4 0.941407L4.5 0.941406L7.5 0.941406C7.63261 0.941406 7.75979 0.994085 7.85355 1.08785C7.94732 1.18162 8 1.3088 8 1.44141C8 1.57401 7.94732 1.70119 7.85355 1.79496C7.75979 1.88873 7.63261 1.94141 7.5 1.94141H4.5L4 1.94141L3.5 1.94141H0.5C0.367392 1.94141 0.240215 1.88873 0.146447 1.79496C0.0526785 1.70119 0 1.57401 0 1.44141C0 1.3088 0.0526785 1.18162 0.146447 1.08785C0.240215 0.994085 0.367392 0.941406 0.5 0.941406H3.5L4 0.941407Z" fill="#252525"/>
</svg>
